<?xml version="1.0" encoding="iso-8859-1"?>
<!-- Generator: Adobe Illustrator 16.0.0, SVG Export Plug-In . SVG Version: 6.00 Build 0)  -->
<!DOCTYPE svg PUBLIC "-//W3C//DTD SVG 1.1//EN" "http://www.w3.org/Graphics/SVG/1.1/DTD/svg11.dtd">
<svg version="1.1" id="Capa_1" xmlns="http://www.w3.org/2000/svg" xmlns:xlink="http://www.w3.org/1999/xlink" x="0px" y="0px"
	 width="94px" height="94px" viewBox="0 0 94 94" style="enable-background:new 0 0 94 94;" xml:space="preserve">
<g>
	<g>
		<path d="M32.236,59.26c-1.388-0.205-4.267-0.891-6.517-1.392c3.254,10.575,12.263,18.616,23.313,20.384
			c-0.126-0.052-0.251-0.104-0.376-0.157C36.39,70.896,32.236,59.26,32.236,59.26z"/>
		<path d="M29.13,35.92c0,0-0.078-1.123,0.111-2.992c-1.131,1.729-2.084,3.582-2.841,5.539C27.604,37.14,28.632,36.305,29.13,35.92z
			"/>
		<path d="M29.018,43.045c-2.49,2.413-3.816,5.757-4.511,8.36c0.11,1.442,0.32,2.86,0.631,4.237l6.273,1.031
			C31.411,56.675,29.286,50.311,29.018,43.045z"/>
		<path d="M53.617,19.658c-7.46,0-14.274,2.842-19.442,7.506c-0.799,1.534-1.321,3.477-1.662,5.964c0,0,7.924-6.735,22.094-5.067
			c3.547,0.152,3.127,3.272,3.096,4.234c-12.916-1.064-19.228,2.615-25.496,7.967c1.21,11.913,4.072,16.763,4.072,16.763
			s16.323,0.759,28.733-8.116c1.562-1.146,2.889-1.229,3.225,0.705c0.195,1.577,0.359,3.671-1.436,4.506
			c-5.443,2.532-11.447,4.153-17.424,5.006c-3.876,0.552-6.013,0.714-11.798,0.591c0,0,5.519,12.813,19.301,16.303
			c4.339,0.713,7.618,0.181,9.806-0.527c9.561-4.85,16.139-14.837,16.139-26.352C82.823,32.883,69.723,19.658,53.617,19.658z"/>
		<path d="M89,0H5C2.239,0,0,2.238,0,5v84c0,2.762,2.239,5,5,5h84c2.762,0,5-2.238,5-5V5C94,2.238,91.762,0,89,0z M85.58,47.738
			c-0.27,2.549-0.704,5.462-1.5,7.908c-3.355,9.943-7.997,16.447-18.615,22.35c-0.979,0.695-2.029,1.306-3.07,1.661
			c-1.912,0.655-3.965,0.812-6.088,0.592c-0.886,0.078-1.781,0.118-2.688,0.118c-14.241,0-26.234-9.702-29.843-22.913
			c-0.123-0.022-0.242-0.045-0.348-0.063c0,0-0.856,6.711,4.126,15.772c0.296,0.462,1.987,3.056,1.987,3.056
			s-9.477-5.009-9.74-19.877c-2.271-0.832-10.197-3.518-11.561-5.717c6.195,3.38,11.495,4.051,11.495,4.051
			s-0.034-0.037,0.088-1.199c0.515-4.51,1.922-8.078,3.506-10.799c1.063-5.102,3.361-9.741,6.562-13.592
			c0.545-2.328,1.459-5.082,3.002-7.992c0.67-1.266,1.308-2.078,3.021-2.876c11.339-5.279,22.542-6.634,34.001-0.667
			C80.907,23.277,86.902,35.275,85.58,47.738z"/>
	</g>
</g>
<g>
</g>
<g>
</g>
<g>
</g>
<g>
</g>
<g>
</g>
<g>
</g>
<g>
</g>
<g>
</g>
<g>
</g>
<g>
</g>
<g>
</g>
<g>
</g>
<g>
</g>
<g>
</g>
<g>
</g>
</svg>
